<svg width="32" height="32" viewBox="0 0 32 32" fill="none" xmlns="http://www.w3.org/2000/svg">
<path d="M16 32C24.8366 32 32 24.8366 32 16C32 7.16344 24.8366 0 16 0C7.16344 0 0 7.16344 0 16C0 24.8366 7.16344 32 16 32Z" fill="#7F8287"/>
<path fill-rule="evenodd" clip-rule="evenodd" d="M15.3954 23.0173H16.6512C16.6512 23.0173 17.0305 22.9757 17.2242 22.7669C17.4025 22.5752 17.3968 22.2153 17.3968 22.2153C17.3968 22.2153 17.3722 20.5302 18.1543 20.2821C18.9252 20.0377 19.9152 21.9107 20.9645 22.6308C21.758 23.1759 22.3609 23.0564 22.3609 23.0564L25.1666 23.0173C25.1666 23.0173 26.6343 22.9269 25.9384 21.7729C25.8813 21.6785 25.5331 20.9193 23.8523 19.3591C22.0931 17.7263 22.3287 17.9904 24.4478 15.1659C25.7384 13.4458 26.2544 12.3956 26.0932 11.9458C25.9395 11.5174 24.9903 11.6307 24.9903 11.6307L21.8313 11.6503C21.8313 11.6503 21.5971 11.6184 21.4234 11.7222C21.2537 11.824 21.1445 12.0613 21.1445 12.0613C21.1445 12.0613 20.6445 13.3924 19.9777 14.5244C18.571 16.9131 18.0085 17.0392 17.7787 16.8909C17.2439 16.5452 17.3774 15.5022 17.3774 14.7612C17.3774 12.4464 17.7285 11.4812 16.6937 11.2314C16.3503 11.1484 16.0976 11.0936 15.2194 11.0848C14.0922 11.0731 13.1382 11.0882 12.598 11.3529C12.2386 11.5288 11.9614 11.921 12.1303 11.9435C12.339 11.9715 12.8119 12.071 13.0626 12.4124C13.3863 12.8528 13.3749 13.8419 13.3749 13.8419C13.3749 13.8419 13.5609 16.5669 12.9406 16.9054C12.5147 17.1376 11.9306 16.6636 10.6765 14.4965C10.0339 13.3864 9.54877 12.1594 9.54877 12.1594C9.54877 12.1594 9.45522 11.9301 9.28837 11.8075C9.08587 11.6589 8.80293 11.6115 8.80293 11.6115L5.80104 11.6312C5.80104 11.6312 5.3504 11.6438 5.18498 11.8397C5.03781 12.014 5.17329 12.3745 5.17329 12.3745C5.17329 12.3745 7.52346 17.8729 10.1845 20.6437C12.6245 23.1842 15.3954 23.0173 15.3954 23.0173Z" fill="#2A2F37"/>
</svg>
